<svg width="469" height="392" viewBox="0 0 469 392" fill="none" xmlns="http://www.w3.org/2000/svg">
<path d="M137.246 212.144V195.826C137.246 182.863 131.109 170.428 120.181 161.251C109.253 152.074 79.9725 158.53 64.5 158.5C64.6558 153.148 72.6625 137.637 73.5 134.145C76.5055 121.482 90.7429 109.851 101.639 100.722C112.535 91.5929 126.417 85.3761 141.531 82.858C149.049 81.6016 158.085 81.6016 176.198 81.6016H220.019L228 212.144L176 224L137.246 212.144ZM244.5 212.144L292 224L332.007 212.144V195.826C332.007 182.863 338.144 170.428 349.072 161.251C360 152.074 381.527 158.53 397 158.5C396.978 154.233 392.885 138.347 392 134.145C388.995 121.482 378.51 109.851 367.614 100.722C356.718 91.5929 342.835 85.3761 327.722 82.858C320.204 81.6016 311.167 81.6016 293.055 81.6016H249.234L244.5 212.144Z" fill="#220100"/>
<g filter="url(#filter0_d_237_18)">
<path d="M360.135 293.732H109.127C103.844 293.729 98.5777 293.225 93.4294 292.231V310.05C93.4294 313.295 81.5617 319.993 78.8223 322.288C82.6963 322.288 76.083 324.583 78.8223 322.288C81.5617 324.583 74.9483 322.288 78.8223 322.288C76.083 319.993 64.2152 313.295 64.2152 310.05V279.878C56.5769 274.435 50.4431 267.665 46.2392 260.037C42.0354 252.41 39.8621 244.107 39.8701 235.706V195.825C39.8701 187.17 43.974 178.869 51.279 172.748C58.5839 166.628 68.4916 163.189 78.8223 163.189C89.1531 163.189 99.0607 166.628 106.366 172.748C113.671 178.869 117.774 187.17 117.774 195.825V215.406C117.774 218.869 119.416 222.189 122.338 224.637C125.26 227.085 129.223 228.461 133.355 228.461H335.907C340.039 228.461 344.002 227.085 346.924 224.637C349.846 222.189 351.487 218.869 351.487 215.406V195.825C351.487 187.17 355.591 178.869 362.896 172.748C370.201 166.628 380.109 163.189 390.44 163.189C400.77 163.189 410.678 166.628 417.983 172.748C425.288 178.869 429.392 187.17 429.392 195.825V235.706C429.4 244.107 427.227 252.41 423.023 260.037C418.819 267.665 412.685 274.435 405.047 279.878V310.05C405.047 313.295 393.179 319.993 390.44 322.288C394.314 322.288 387.7 324.583 390.44 322.288C393.179 324.583 386.566 322.288 390.44 322.288C387.7 319.993 375.833 313.295 375.833 310.05V292.231C370.684 293.225 365.418 293.729 360.135 293.732Z" fill="#220100"/>
</g>
<defs>
<filter id="filter0_d_237_18" x="35.8701" y="163.189" width="397.521" height="168.118" filterUnits="userSpaceOnUse" color-interpolation-filters="sRGB">
<feFlood flood-opacity="0" result="BackgroundImageFix"/>
<feColorMatrix in="SourceAlpha" type="matrix" values="0 0 0 0 0 0 0 0 0 0 0 0 0 0 0 0 0 0 127 0" result="hardAlpha"/>
<feOffset dy="4"/>
<feGaussianBlur stdDeviation="2"/>
<feComposite in2="hardAlpha" operator="out"/>
<feColorMatrix type="matrix" values="0 0 0 0 0 0 0 0 0 0 0 0 0 0 0 0 0 0 0.25 0"/>
<feBlend mode="normal" in2="BackgroundImageFix" result="effect1_dropShadow_237_18"/>
<feBlend mode="normal" in="SourceGraphic" in2="effect1_dropShadow_237_18" result="shape"/>
</filter>
</defs>
</svg>
